<svg xmlns="http://www.w3.org/2000/svg" viewBox="0 0 420 640" role="img" aria-label="Preview scene three">
  <defs>
    <linearGradient id="bg3" x1="0" y1="0" x2="0" y2="1">
      <stop offset="0%" stop-color="#ffe08a"/>
      <stop offset="40%" stop-color="#ffb054"/>
      <stop offset="100%" stop-color="#3a1f2b"/>
    </linearGradient>
  </defs>
  <rect width="420" height="640" fill="url(#bg3)"/>
  <path d="M0 520c54-54 110-74 174-62 88 16 132-6 246-98V640H0z" fill="#2a151f" opacity="0.92"/>
  <rect x="166" y="424" width="26" height="120" fill="#1f121b"/>
  <path d="M150 612l30-180 30 180z" fill="#120a10"/>
  <circle cx="178" cy="402" r="27" fill="#25131c"/>
  <path d="M42 290c58-26 112-32 162-18 24 8 64 10 124 6-40 26-66 56-80 90-50-22-120-28-206-18z" fill="#ffdea8" opacity="0.24"/>
  <path d="M276 260l72-120 32 154z" fill="#ffd391" opacity="0.25"/>
</svg>
